<?xml version="1.0" standalone="no"?><!DOCTYPE svg PUBLIC "-//W3C//DTD SVG 1.1//EN" "http://www.w3.org/Graphics/SVG/1.1/DTD/svg11.dtd"><svg t="1532058027993" class="icon" style="" viewBox="0 0 1024 1024" version="1.1" xmlns="http://www.w3.org/2000/svg" p-id="7141" xmlns:xlink="http://www.w3.org/1999/xlink" width="48" height="48"><defs><style type="text/css"></style></defs><path d="M938.7264 338.4224c-22.1504-52.368-53.88373333-99.39093333-94.25386667-139.76106667-40.3712-40.37013333-87.4592-72.0704-139.82826666-94.2208C650.40426667 81.49866667 593.06666667 69.86666667 533.33333333 69.86666667v85.33333333c195.2 0 354.53333333 158.98346667 354.53333334 354.4S729.01653333 864 533.6 864 179.2 705.01653333 179.2 509.6c0-37.31946667 5.67893333-73.67893333 16.9056-108.54186667l80.45546667 44.54293334-2.47893334-137.93813334-2.48-137.9392-118.21866666 71.1168L35.16586667 311.95733333l85.1392 47.13493334C102.75306667 407.16693333 93.86666667 457.65226667 93.86666667 509.6c0 59.34506667 11.632 116.9376 34.57386666 171.1776 22.1504 52.36906667 53.85066667 99.39093333 94.2208 139.76106667 40.3712 40.3712 87.39306667 72.0704 139.76106667 94.2208C416.66346667 937.70133333 474.25493333 949.33333333 533.6 949.33333333s116.93546667-11.632 171.17546667-34.57386666c52.36906667-22.1504 99.3888-53.8496 139.75893333-94.2208s72.0672-87.39306667 94.21653333-139.76106667c22.94186667-54.24 34.56533333-111.83253333 34.56533334-171.1776s-11.64906667-116.93653333-34.58986667-171.1776z" p-id="7142" fill="#d9d9d9"></path></svg>